<svg width="214" height="169" viewBox="0 0 214 169" fill="none" xmlns="http://www.w3.org/2000/svg">
<path d="M213.4 73.8V96.198C213.4 99.2878 210.896 101.8 207.798 101.8H6.19839C3.10069 101.8 0.596802 99.2918 0.596802 96.198V73.8C0.596802 70.7102 3.10069 68.1984 6.19839 68.1984H207.798C210.896 68.1984 213.396 70.7062 213.396 73.8H213.4ZM207.802 135.398H6.2023C3.1046 135.398 0.600693 137.906 0.600693 141V163.398C0.600693 166.487 3.1046 168.999 6.2023 168.999H207.802C210.9 168.999 213.404 166.491 213.404 163.398V141C213.4 137.91 210.9 135.398 207.802 135.398ZM207.802 0.998001H6.2023C3.1046 0.998001 0.600693 3.50579 0.600693 6.59959V28.9976C0.600693 32.0874 3.1046 34.5992 6.2023 34.5992H207.802C210.9 34.5992 213.404 32.0914 213.404 28.9976V6.59959C213.4 3.50579 210.9 0.998001 207.802 0.998001Z" fill="black"/>
</svg>
